<svg width="33" height="32" viewBox="0 0 33 32" fill="none" xmlns="http://www.w3.org/2000/svg">
    <rect x="0.506836" width="32" height="32" rx="16" fill="#F5F7FA" />
    <g clip-path="url(#clip0)">
        <path
            d="M21.196 16.0319C21.1765 13.8822 22.9723 12.8502 23.0535 12.7999C22.043 11.3386 20.4704 11.1384 19.9094 11.1148C18.5718 10.981 17.2981 11.8931 16.6201 11.8931C15.9421 11.8931 14.8936 11.1341 13.7846 11.1555C12.3246 11.1769 10.9805 11.9938 10.2288 13.2849C8.71361 15.8831 9.84218 19.7339 11.3173 21.8428C12.0397 22.8738 12.8997 24.0353 14.0304 23.9925C15.12 23.9497 15.5316 23.2966 16.8464 23.2966C18.1613 23.2966 18.5317 23.9925 19.683 23.9722C20.8538 23.9497 21.5968 22.9187 22.3138 21.8846C23.1412 20.6877 23.4835 19.5294 23.503 19.4684C23.477 19.4576 21.2199 18.6023 21.196 16.0319Z"
            fill="#243656" />
        <path
            d="M19.0333 9.72008C19.6333 9.00174 20.0384 8.0029 19.9268 7.00732C19.0624 7.04162 18.0163 7.57687 17.3956 8.29521C16.84 8.93008 16.3527 9.94707 16.4847 10.9224C17.4487 10.9962 18.4332 10.4374 19.0333 9.72008Z"
            fill="#243656" />
    </g>
    <defs>
        <clipPath id="clip0">
            <rect width="14" height="17" fill="white" transform="translate(9.50684 7)" />
        </clipPath>
    </defs>
</svg>