<svg width="33" height="32" viewBox="0 0 33 32" fill="none" xmlns="http://www.w3.org/2000/svg">
    <rect x="0.506836" width="32" height="32" rx="16" fill="#F5F7FA" />
    <path
        d="M22.4104 18.2812C22.1624 19.0014 21.8142 19.633 21.3656 20.176C20.7989 20.8608 20.1024 21.3802 19.276 21.7344C18.4614 22.0885 17.5937 22.2656 16.6729 22.2656C15.7284 22.2656 14.843 22.0826 14.0166 21.7167C13.1902 21.3507 12.5114 20.8372 11.9801 20.176C10.9767 18.9601 10.4749 17.4431 10.4749 15.625C10.4749 13.7833 10.9767 12.2604 11.9801 11.0562C12.5232 10.3715 13.202 9.85799 14.0166 9.51562C14.843 9.16146 15.7284 8.98437 16.6729 8.98437C17.6173 8.98437 18.4968 9.16146 19.3114 9.51562C20.126 9.86979 20.8107 10.3833 21.3656 11.0562C21.885 11.7056 22.2746 12.4611 22.5343 13.3229L20.0551 13.7479C19.8899 13.2285 19.6892 12.8212 19.4531 12.526C19.1461 12.1128 18.7447 11.7941 18.2489 11.5698C17.7531 11.3455 17.2277 11.2333 16.6729 11.2333C16.1062 11.2333 15.5749 11.3455 15.0791 11.5698C14.5951 11.7941 14.1996 12.1128 13.8926 12.526C13.3378 13.2344 13.0485 14.2674 13.0249 15.625C13.0485 16.9708 13.3378 18.0038 13.8926 18.724C14.1878 19.1372 14.5774 19.4559 15.0614 19.6802C15.5454 19.8927 16.059 19.999 16.602 19.999C17.1805 19.999 17.7176 19.8927 18.2135 19.6802C18.7211 19.4677 19.1343 19.149 19.4531 18.724C19.701 18.3816 19.8899 18.0038 20.0197 17.5906L22.4104 18.2812Z"
        fill="#243656" />
</svg>