<svg width="33" height="32" viewBox="0 0 33 32" fill="none" xmlns="http://www.w3.org/2000/svg">
    <rect x="0.506836" width="32" height="32" rx="16" fill="#F5F7FA" />
    <path
        d="M6.5432 20.9697C6.6038 20.8737 6.70076 20.8677 6.83409 20.9517C9.83482 22.6831 13.2508 23.5842 16.7243 23.5604C19.1313 23.5546 21.5165 23.1094 23.7602 22.2471C23.8208 22.2231 23.9087 22.1871 24.0239 22.1391C24.139 22.0911 24.2208 22.0551 24.2693 22.0312C24.3411 21.9924 24.4251 21.982 24.5044 22.002C24.5836 22.022 24.6523 22.071 24.6965 22.1391C24.7996 22.283 24.7662 22.415 24.5965 22.5349C24.3784 22.6908 24.0996 22.8708 23.7602 23.0747C22.6689 23.7064 21.4941 24.1848 20.2696 24.496C19.0424 24.8242 17.7774 24.9935 16.5062 24.9998C14.672 25.0101 12.8523 24.6775 11.1429 24.0192C9.47747 23.3773 7.94361 22.4416 6.61592 21.2575C6.58544 21.2374 6.55985 21.2108 6.54098 21.1797C6.52212 21.1486 6.51046 21.1137 6.50684 21.0776C6.50774 21.0388 6.52041 21.0012 6.5432 20.9697ZM12.0156 15.8421C11.9938 15.088 12.2098 14.346 12.6337 13.7191C13.0559 13.1233 13.643 12.6609 14.3245 12.3877C15.0994 12.0816 15.9129 11.8818 16.7425 11.794C17.0698 11.758 17.6031 11.71 18.3424 11.65V11.3442C18.3884 10.8155 18.3009 10.2838 18.0879 9.79689C17.9503 9.61384 17.7681 9.46831 17.5582 9.37391C17.3484 9.27952 17.1178 9.23934 16.888 9.25714H16.7425C16.368 9.28378 16.0087 9.41476 15.7062 9.63497C15.4123 9.85548 15.2115 10.176 15.1426 10.5345C15.1354 10.6332 15.0961 10.7268 15.0305 10.8014C14.965 10.8761 14.8767 10.9276 14.779 10.9483L12.6882 10.6965C12.4822 10.6485 12.3792 10.5405 12.3792 10.3726C12.3801 10.3301 12.3862 10.2878 12.3974 10.2467C12.4677 9.76754 12.6393 9.30845 12.9009 8.89927C13.1624 8.49009 13.5081 8.14001 13.9154 7.87179C14.7645 7.3426 15.7398 7.04469 16.7425 7.0082H17.197C18.3734 6.93823 19.532 7.31825 20.4332 8.0697C20.5549 8.19019 20.6673 8.31949 20.7695 8.45652C20.8591 8.5742 20.9411 8.69739 21.015 8.82535C21.09 8.97349 21.145 9.13077 21.1786 9.29313C21.2271 9.49703 21.2634 9.63796 21.2877 9.71593C21.3226 9.88166 21.3408 10.0504 21.3422 10.2197C21.3543 10.4776 21.3604 10.6305 21.3604 10.6785V15.0324C21.3569 15.3229 21.403 15.6118 21.4967 15.887C21.5581 16.0841 21.6468 16.2718 21.7604 16.4448C21.8452 16.5587 21.9846 16.7416 22.1785 16.9935C22.2424 17.0769 22.2803 17.177 22.2876 17.2814C22.2859 17.3319 22.2717 17.3812 22.2464 17.4251C22.221 17.469 22.1853 17.5061 22.1422 17.5333C21.1362 18.3969 20.5907 18.8646 20.5059 18.9366C20.4299 18.9901 20.3404 19.0217 20.2474 19.0281C20.1544 19.0344 20.0614 19.0152 19.9787 18.9726C19.809 18.8287 19.6605 18.6907 19.5332 18.5588C19.406 18.4268 19.3151 18.3309 19.2605 18.2709C19.1663 18.1588 19.0783 18.0417 18.9969 17.9201C18.8757 17.7462 18.7909 17.6292 18.7424 17.5692C18.2164 18.1993 17.5241 18.6727 16.7425 18.9366C16.2445 19.0672 15.7304 19.1278 15.2153 19.1165C14.7939 19.1318 14.3736 19.0641 13.9788 18.9174C13.584 18.7707 13.2226 18.5479 12.9155 18.2619C12.6039 17.9425 12.3629 17.5624 12.208 17.1458C12.0531 16.7291 11.9875 16.2851 12.0156 15.8421ZM15.1426 15.4822C15.122 15.8868 15.2477 16.2855 15.4971 16.6067C15.6125 16.7452 15.7587 16.8555 15.9243 16.9289C16.0899 17.0022 16.2704 17.0367 16.4516 17.0295C16.5036 17.0278 16.5553 17.0218 16.6062 17.0115C16.6511 17.0022 16.6967 16.9962 16.7425 16.9935C16.9984 16.9249 17.2364 16.8027 17.4403 16.6351C17.6442 16.4674 17.8092 16.2583 17.9243 16.022C18.0598 15.7886 18.1608 15.5371 18.2242 15.2753C18.2821 15.0605 18.3186 14.8405 18.3333 14.6186C18.3394 14.4507 18.3424 14.1748 18.3424 13.791V13.3412C17.8052 13.3248 17.2679 13.3731 16.7425 13.4852C16.276 13.5686 15.8563 13.8174 15.5618 14.185C15.2673 14.5525 15.1183 15.0137 15.1426 15.4822ZM22.7785 21.2755C22.8068 21.2221 22.8437 21.1735 22.8876 21.1316C23.1525 20.9455 23.4477 20.8055 23.7602 20.7178C24.1995 20.6009 24.651 20.5345 25.1056 20.5199C25.221 20.5076 25.3376 20.5136 25.451 20.5379C25.9965 20.5858 26.3237 20.6758 26.4328 20.8077C26.4879 20.9066 26.5131 21.019 26.5055 21.1316V21.2575C26.485 21.7693 26.3679 22.2727 26.1601 22.7418C25.9578 23.2719 25.6269 23.7445 25.1965 24.1182C25.1516 24.1596 25.094 24.1849 25.0329 24.1901C25.0075 24.1899 24.9826 24.1837 24.9602 24.1722C24.8874 24.1362 24.8693 24.0702 24.9056 23.9742C25.2507 23.2907 25.478 22.5549 25.5783 21.7973C25.5868 21.696 25.5612 21.5948 25.5056 21.5094C25.3844 21.3655 25.045 21.2935 24.4875 21.2935C24.2814 21.2935 24.039 21.3055 23.7602 21.3295C23.4572 21.3655 23.1785 21.4015 22.9239 21.4374C22.8726 21.4435 22.8209 21.4307 22.7785 21.4015C22.7676 21.3934 22.7598 21.3818 22.7565 21.3687C22.7532 21.3556 22.7545 21.3417 22.7603 21.3295C22.7625 21.3104 22.7687 21.2921 22.7785 21.2755Z"
        fill="#243656" />
</svg>