<svg width="33" height="32" viewBox="0 0 33 32" fill="none" xmlns="http://www.w3.org/2000/svg">
    <rect x="0.506836" width="32" height="32" rx="16" fill="#F5F7FA" />
    <path fill-rule="evenodd" clip-rule="evenodd"
        d="M20.738 13.5163C21.5697 14.0297 21.9855 14.2864 22.0584 14.7377C22.1313 15.1891 21.8414 15.535 21.2616 16.2267C20.1842 17.5121 18.8714 18.6998 17.5065 19.4999C16.1597 20.2894 14.7883 20.6861 13.3203 20.9075C12.4268 21.0423 11.9801 21.1097 11.6388 20.8372C11.2975 20.5646 11.2623 20.0854 11.1919 19.1271L10.594 10.9822C10.4685 9.27352 10.4058 8.41917 10.9291 8.10157C11.4524 7.78397 12.1813 8.23396 13.6392 9.13395L20.738 13.5163ZM13.9673 15.6387C13.7987 15.6387 13.6339 15.6896 13.4938 15.7848C13.3536 15.88 13.2443 16.0153 13.1798 16.1737C13.1153 16.332 13.0984 16.5063 13.1313 16.6744C13.1642 16.8425 13.2454 16.9969 13.3646 17.1181C13.4838 17.2393 13.6357 17.3218 13.801 17.3552C13.9664 17.3887 14.1377 17.3715 14.2935 17.3059C14.4492 17.2403 14.5824 17.1293 14.676 16.9868C14.7697 16.8442 14.8197 16.6767 14.8197 16.5053C14.8197 16.2755 14.7299 16.0551 14.57 15.8926C14.4102 15.73 14.1934 15.6387 13.9673 15.6387ZM13.9673 11.7565C13.7987 11.7565 13.6339 11.8074 13.4938 11.9026C13.3536 11.9978 13.2443 12.1331 13.1798 12.2915C13.1153 12.4498 13.0984 12.6241 13.1313 12.7922C13.1642 12.9603 13.2454 13.1147 13.3646 13.2359C13.4838 13.357 13.6357 13.4396 13.801 13.473C13.9664 13.5064 14.1377 13.4893 14.2935 13.4237C14.4492 13.3581 14.5824 13.247 14.676 13.1045C14.7697 12.962 14.8197 12.7945 14.8197 12.6231C14.8197 12.3933 14.7299 12.1729 14.57 12.0103C14.4102 11.8478 14.1934 11.7565 13.9673 11.7565ZM16.9421 13.4897C16.716 13.4897 16.4992 13.581 16.3393 13.7435C16.1795 13.906 16.0897 14.1264 16.0897 14.3562V15.2228C16.0897 15.4526 16.1795 15.673 16.3393 15.8356C16.4992 15.9981 16.716 16.0894 16.9421 16.0894C17.1681 16.0894 17.3849 15.9981 17.5448 15.8356C17.7046 15.673 17.7944 15.4526 17.7944 15.2228V14.3562C17.7944 14.1264 17.7046 13.906 17.5448 13.7435C17.3849 13.581 17.1681 13.4897 16.9421 13.4897ZM25.115 16.7366C25.3844 16.1591 25.0697 15.4939 24.4692 15.2805C23.8786 15.0707 23.2343 15.3783 22.9607 15.9422C21.9787 17.9664 20.4184 19.6673 18.4758 20.8099C16.5461 21.945 14.3459 22.4664 12.1656 22.3206C11.5288 22.278 10.927 22.6839 10.8042 23.3102C10.678 23.954 11.1051 24.5815 11.7589 24.6351C14.4624 24.857 17.2003 24.229 19.5944 22.8209C22.0071 21.4017 23.9327 19.2712 25.115 16.7366Z"
        fill="#243656" />
</svg>