<svg xmlns="http://www.w3.org/2000/svg" width="12.809" height="12.809" viewBox="0 0 12.809 12.809">
    <g id="noun_Time_3564743" transform="translate(-32 -1)">
        <g id="Grupo_83" data-name="Grupo 83" transform="translate(32 1)">
            <path id="Trazado_33" data-name="Trazado 33"
                d="M8.4,14.809a6.4,6.4,0,1,1,6.4-6.4,6.4,6.4,0,0,1-6.4,6.4Zm0-11.894A5.489,5.489,0,1,0,13.894,8.4,5.489,5.489,0,0,0,8.4,2.915Z"
                transform="translate(-2 -2)" fill="#fff" />
            <path id="Trazado_34" data-name="Trazado 34"
                d="M10.465,13.319a.412.412,0,0,1-.32-.137.457.457,0,0,1,0-.64l2.15-2.15V6.457a.457.457,0,1,1,.915,0v4.117a.412.412,0,0,1-.137.32l-2.287,2.287A.412.412,0,0,1,10.465,13.319Z"
                transform="translate(-6.348 -4.17)" fill="#fff" />
        </g>
    </g>
</svg>