<svg xmlns="http://www.w3.org/2000/svg" width="11.352" height="14.844" viewBox="0 0 11.352 14.844">
    <path id="Trazado_1952" data-name="Trazado 1952"
        d="M14.683,6.5a2.184,2.184,0,0,0-1.543.639h0A2.184,2.184,0,0,0,12.5,8.683V19.161a.437.437,0,0,0,.033.167,2.169,2.169,0,0,0,.606,1.377h0a2.184,2.184,0,0,0,1.543.639h8.732a.437.437,0,0,0,0-.873H14.683a1.311,1.311,0,0,1-.926-.383h0a1.31,1.31,0,0,1,.927-2.236h6.986a2.184,2.184,0,0,0,1.543-.639h0a2.184,2.184,0,0,0,.639-1.543V8.683a2.184,2.184,0,0,0-.639-1.543h0A2.184,2.184,0,0,0,21.669,6.5Zm0,.873h6.986a1.309,1.309,0,0,1,1.31,1.31v6.986a1.311,1.311,0,0,1-.383.926h0a1.311,1.311,0,0,1-.926.383H14.683a2.159,2.159,0,0,0-1.31.483V8.683a1.309,1.309,0,0,1,1.31-1.31Zm7.131,5.967a.437.437,0,0,0-.437.437v1.164a.434.434,0,0,1-.128.308h0a.434.434,0,0,1-.308.128H19.777a.437.437,0,0,0,0,.873h1.164a1.31,1.31,0,0,0,1.31-1.31V13.777A.437.437,0,0,0,21.814,13.34Zm-7.131,5.385a.437.437,0,1,0,0,.873h8.732a.437.437,0,1,0,0-.873Z"
        transform="translate(-12.5 -6.5)" fill="#fff" />
</svg>