<svg id="Grupo_91" data-name="Grupo 91" xmlns="http://www.w3.org/2000/svg" width="14.131" height="14.131"
    viewBox="0 0 14.131 14.131">
    <path id="Trazado_1955" data-name="Trazado 1955"
        d="M19.065,12a7.065,7.065,0,1,0,7.065,7.065A7.074,7.074,0,0,0,19.065,12Zm0,13.015a5.95,5.95,0,1,1,5.95-5.95A5.957,5.957,0,0,1,19.065,25.015Z"
        transform="translate(-12 -12)" fill="#fff" />
    <path id="Trazado_1956" data-name="Trazado 1956"
        d="M39.945,37.147l-3.676,3.341-1.3-1.443a.558.558,0,0,0-.829.747l1.673,1.859a.558.558,0,0,0,.387.184h.028a.566.566,0,0,0,.376-.145l4.09-3.719a.558.558,0,1,0-.751-.826Z"
        transform="translate(-29.908 -32.354)" fill="#fff" />
</svg>