<svg xmlns="http://www.w3.org/2000/svg" width="22.277" height="22.277" viewBox="0 0 22.277 22.277">
    <g id="Layer_2" transform="translate(-162.825 -71.625)">
        <g id="art" transform="translate(162.825 71.625)">
            <path id="Trazado_112" data-name="Trazado 112"
                d="M166.057,187.992a3.215,3.215,0,0,0-2.828-3.192,12.8,12.8,0,0,0,0,6.384A3.209,3.209,0,0,0,166.057,187.992Z"
                transform="translate(-162.825 -176.878)" fill="#bbc7db" />
            <path id="Trazado_113" data-name="Trazado 113"
                d="M222.215,216a1.011,1.011,0,1,0,1.008,1.015v-.007A1,1,0,0,0,222.215,216Z"
                transform="translate(-217.114 -205.894)" fill="#bbc7db" />
            <path id="Trazado_114" data-name="Trazado 114"
                d="M434.9,187.992a3.215,3.215,0,0,0,2.828,3.192,12.8,12.8,0,0,0,0-6.384A3.22,3.22,0,0,0,434.9,187.992Z"
                transform="translate(-415.855 -176.878)" fill="#bbc7db" />
            <path id="Trazado_115" data-name="Trazado 115"
                d="M394.521,216a1.012,1.012,0,1,0,1,1.022v-.014A1.011,1.011,0,0,0,394.521,216Z"
                transform="translate(-377.352 -205.893)" fill="#bbc7db" />
            <path id="Trazado_116" data-name="Trazado 116"
                d="M279.192,343.7A3.215,3.215,0,0,0,276,346.528a12.8,12.8,0,0,0,6.384,0A3.214,3.214,0,0,0,279.192,343.7Z"
                transform="translate(-268.078 -324.655)" fill="#bbc7db" />
            <path id="Trazado_117" data-name="Trazado 117"
                d="M308.115,302.6a1.011,1.011,0,1,0,1.008,1.015v-.007A1.008,1.008,0,0,0,308.115,302.6Z"
                transform="translate(-297.001 -286.432)" fill="#bbc7db" />
            <path id="Trazado_118" data-name="Trazado 118"
                d="M279.192,74.857a3.215,3.215,0,0,0,3.192-2.828,12.8,12.8,0,0,0-6.384,0A3.215,3.215,0,0,0,279.192,74.857Z"
                transform="translate(-268.078 -71.625)" fill="#bbc7db" />
            <path id="Trazado_119" data-name="Trazado 119"
                d="M308.208,130.1a1.008,1.008,0,1,0,1.008,1.008h0A1.008,1.008,0,0,0,308.208,130.1Z"
                transform="translate(-297.094 -126.007)" fill="#bbc7db" />
            <path id="Trazado_120" data-name="Trazado 120"
                d="M389.093,297.947a3.209,3.209,0,0,0-.259,4.249,12.8,12.8,0,0,0,4.515-4.515A3.243,3.243,0,0,0,389.093,297.947Z"
                transform="translate(-372.379 -281.233)" fill="#bbc7db" />
            <path id="Trazado_121" data-name="Trazado 121"
                d="M368.594,277.394a1.01,1.01,0,1,0,1.428,0h0A1.014,1.014,0,0,0,368.594,277.394Z"
                transform="translate(-353.917 -262.717)" fill="#bbc7db" />
            <path id="Trazado_122" data-name="Trazado 122"
                d="M185.449,94.249A3.218,3.218,0,0,0,185.715,90a12.8,12.8,0,0,0-4.515,4.515A3.218,3.218,0,0,0,185.449,94.249Z"
                transform="translate(-179.914 -88.714)" fill="#bbc7db" />
            <path id="Trazado_123" data-name="Trazado 123"
                d="M246.694,155.494a1.01,1.01,0,1,0,1.428,0h0A1.014,1.014,0,0,0,246.694,155.494Z"
                transform="translate(-240.55 -149.35)" fill="#bbc7db" />
            <path id="Trazado_124" data-name="Trazado 124"
                d="M388.978,94.049a3.218,3.218,0,0,0,4.249.266,12.8,12.8,0,0,0-4.515-4.515A3.217,3.217,0,0,0,388.978,94.049Z"
                transform="translate(-372.271 -88.528)" fill="#bbc7db" />
            <path id="Trazado_125" data-name="Trazado 125"
                d="M369.887,156.787a1.01,1.01,0,1,0-1.428,0h0A1.014,1.014,0,0,0,369.887,156.787Z"
                transform="translate(-353.789 -149.222)" fill="#bbc7db" />
            <path id="Trazado_126" data-name="Trazado 126"
                d="M185.349,297.778a3.217,3.217,0,0,0-4.249-.266,12.778,12.778,0,0,0,4.508,4.515A3.217,3.217,0,0,0,185.349,297.778Z"
                transform="translate(-179.821 -281.071)" fill="#bbc7db" />
            <path id="Trazado_127" data-name="Trazado 127"
                d="M246.594,277.194a1.01,1.01,0,1,0,1.428,0h0A1.014,1.014,0,0,0,246.594,277.194Z"
                transform="translate(-240.457 -262.531)" fill="#bbc7db" />
        </g>
    </g>
</svg>