<svg xmlns="http://www.w3.org/2000/svg" width="16.628" height="15.854" viewBox="0 0 16.628 15.854">
    <g id="noun_learn_1572022" transform="translate(-1.125 -9.055)">
        <g id="Grupo_61" data-name="Grupo 61" transform="translate(1.125 9.055)">
            <path id="Trazado_128" data-name="Trazado 128"
                d="M15.287,961.417a2.9,2.9,0,1,0,2.9,2.9A2.907,2.907,0,0,0,15.287,961.417Zm0,1.159a1.739,1.739,0,1,1-1.739,1.739A1.73,1.73,0,0,1,15.287,962.576Zm0,5.024a4.732,4.732,0,0,0-4.565,3.514,5.037,5.037,0,0,0-2.228,1.3c-.059.06-1.485,4.076-1.485,4.076a.58.58,0,0,0,1.027.525,4.288,4.288,0,0,1,3.387-1.491,4.244,4.244,0,0,1,3.387,1.485.58.58,0,0,0,.954,0,4.1,4.1,0,0,1,3.037-1.485.581.581,0,1,0-.072-1.159,5.568,5.568,0,0,0-2.862.984v-2.6a4.714,4.714,0,0,1,2.373-.7,4.205,4.205,0,0,1,2.923,1.1l.622,1.769a4.954,4.954,0,0,0-.948-.344.58.58,0,1,0-.278,1.123,3.168,3.168,0,0,1,1.981,1.316.58.58,0,0,0,1.027-.525s-1.427-4.016-1.485-4.076a5.037,5.037,0,0,0-2.228-1.3,4.731,4.731,0,0,0-4.565-3.514Zm0,1.159a3.591,3.591,0,0,1,3.267,2.131c-.1-.005-.208-.006-.314-.006a5.686,5.686,0,0,0-2.953.87,5.686,5.686,0,0,0-2.953-.87c-.106,0-.21,0-.314.006a3.591,3.591,0,0,1,3.267-2.131Zm-2.953,3.285a4.714,4.714,0,0,1,2.373.7v2.615a5.685,5.685,0,0,0-3.285-1,6.043,6.043,0,0,0-2.651.6l.64-1.817a4.2,4.2,0,0,1,2.923-1.1Z"
                transform="translate(-6.973 -961.417)" fill="#bbc7db" />
        </g>
    </g>
</svg>