<svg xmlns="http://www.w3.org/2000/svg" width="21.635" height="21.057" viewBox="0 0 21.635 21.057">
    <g id="noun_Home_1191731" transform="translate(-9.18 -9.699)">
        <path id="Trazado_110" data-name="Trazado 110"
            d="M29.979,32.584a.944.944,0,0,0-.944.944v5.9A1.379,1.379,0,0,1,27.661,40.8H20.036V35.322A1.124,1.124,0,0,1,21.16,34.2h1.388a1.124,1.124,0,0,1,1.124,1.124v2.833a.944.944,0,0,0,1.888,0V35.322a3.017,3.017,0,0,0-3.012-3.012H21.16a3.017,3.017,0,0,0-3.012,3.012V40.8h-2.1a1.379,1.379,0,0,1-1.379-1.379v-5.9a.944.944,0,1,0-1.888,0v5.9a3.272,3.272,0,0,0,3.267,3.267H27.661a3.272,3.272,0,0,0,3.267-3.267v-5.9a.944.944,0,0,0-.949-.944Z"
            transform="translate(-1.9 -11.936)" fill="#367be2" />
        <path id="Trazado_111" data-name="Trazado 111"
            d="M30.534,18.911l-8.22-8.243a3.3,3.3,0,0,0-4.674,0L9.374,18.911a.944.944,0,0,0,1.331,1.317L18.953,12a1.416,1.416,0,0,1,2.006,0L29.2,20.228a.945.945,0,0,0,1.336-1.336Z"
            transform="translate(0 0)" fill="#367be2" />
    </g>
</svg>