<svg xmlns="http://www.w3.org/2000/svg" width="22.076" height="33.537" viewBox="0 0 22.076 33.537">
    <g id="Trazado_1957" data-name="Trazado 1957" transform="translate(-3.924 29.4) rotate(-90)" fill="#fff">
        <path
            d="M 20.2289924621582 25.49999618530273 L 4.771012306213379 25.49999618530273 C 3.933812141418457 25.49999618530273 2.135912179946899 24.94454574584961 0.3988521993160248 24.14924621582031 C -1.550477743148804 23.25676727294922 -3.001797914505005 22.26666641235352 -3.483407735824585 21.50073623657227 C -3.654266595840454 21.22901916503906 -3.648403167724609 21.07099151611328 -3.624938011169434 20.98828125 L 10.16463184356689 5.961886405944824 L 10.21475219726563 5.907266139984131 L 10.24687194824219 5.840466499328613 C 10.67337226867676 4.953336238861084 11.5156717300415 4.423706531524658 12.50000190734863 4.423706531524658 C 13.48433208465576 4.423706531524658 14.32662200927734 4.953336238861084 14.75312232971191 5.840466499328613 L 14.78629207611084 5.909456253051758 L 14.83858203887939 5.965356349945068 L 28.89055061340332 20.98925971984863 C 28.91090202331543 21.0671501159668 28.9123477935791 21.21274185180664 28.75663185119629 21.46038627624512 C 28.27558135986328 22.22540664672852 26.77595138549805 23.22341728210449 24.74510192871094 24.13005638122559 C 22.96702194213867 24.92385673522949 21.06772232055664 25.49999618530273 20.2289924621582 25.49999618530273 Z"
            stroke="none" />
        <path
            d="M 12.50000190734863 4.923696517944336 C 11.71253204345703 4.923696517944336 11.0387020111084 5.347406387329102 10.6974925994873 6.05711555480957 L 10.63326263427734 6.190727233886719 L 10.53302192687988 6.299945831298828 L -3.102554321289063 21.15853500366211 C -3.034042358398438 21.29319763183594 -2.836605072021484 21.58302688598633 -2.282207489013672 22.01935577392578 C -1.6903076171875 22.48518753051758 -0.8639678955078125 22.98272705078125 0.10748291015625 23.45817565917969 C 2.079421997070313 24.42327690124512 4.027172088623047 24.99999618530273 4.771011352539063 24.99999618530273 L 20.2289924621582 24.99999618530273 C 20.97836303710938 24.99999618530273 22.96960258483887 24.42411613464355 25.00471305847168 23.46040725708008 C 26.00942230224609 22.98462677001953 26.86741256713867 22.48661613464355 27.48593139648438 22.02018737792969 C 28.03049278259277 21.60953521728516 28.27082633972168 21.30907440185547 28.35910034179688 21.15302848815918 L 14.47341251373291 6.306905746459961 L 14.3688325881958 6.195096969604492 L 14.30250263214111 6.05711555480957 C 13.9612922668457 5.347406387329102 13.28746223449707 4.923696517944336 12.50000190734863 4.923696517944336 M 12.50000095367432 3.923702239990234 C 13.57942485809326 3.923702239990234 14.65884685516357 4.490406036376953 15.2037525177002 5.623815536499023 L 29.3197021484375 20.71612548828125 C 30.2772216796875 22.70777702331543 22.43886184692383 25.99999618530273 20.2289924621582 25.99999618530273 L 4.771011352539063 25.99999618530273 C 2.561141967773438 25.99999618530273 -5.011337280273438 22.70777702331543 -4.053817749023438 20.71612548828125 L 9.796241760253906 5.623815536499023 C 10.34115219116211 4.490406036376953 11.42057704925537 3.923702239990234 12.50000095367432 3.923702239990234 Z"
            stroke="none" fill="#fff" />
    </g>
</svg>