<svg xmlns="http://www.w3.org/2000/svg" width="15.698" height="17.235" viewBox="0 0 15.698 17.235">
    <path id="Trazado_1953" data-name="Trazado 1953"
        d="M7.28,10.4H6.1a7.859,7.859,0,0,1,7.849-7.849V1.871c0-.072.089-.125.143-.072l1.842,1.269a.084.084,0,0,1,0,.143L14.092,4.482a.094.094,0,0,1-.143-.072V3.731A6.669,6.669,0,0,0,7.28,10.4Zm6.669,6.669v-.679c0-.072-.089-.125-.143-.072l-1.842,1.269a.084.084,0,0,0,0,.143L13.806,19a.094.094,0,0,0,.143-.072v-.679A7.859,7.859,0,0,0,21.8,10.4H20.635A6.7,6.7,0,0,1,13.949,17.068Zm.769-10.531a4.04,4.04,0,0,1,1.43.59l.518-.518a.335.335,0,0,1,.465,0l.626.626a.335.335,0,0,1,0,.465l-.518.518a4.04,4.04,0,0,1,.59,1.43h.733a.32.32,0,0,1,.322.322v.894a.32.32,0,0,1-.322.322h-.733a4.04,4.04,0,0,1-.59,1.43l.518.518a.335.335,0,0,1,0,.465l-.626.626a.335.335,0,0,1-.465,0l-.518-.518a4.04,4.04,0,0,1-1.43.59v.733a.32.32,0,0,1-.322.322H13.5a.32.32,0,0,1-.322-.322V14.3a4.04,4.04,0,0,1-1.43-.59l-.518.518a.335.335,0,0,1-.465,0l-.626-.626a.335.335,0,0,1,0-.465l.518-.518a4.04,4.04,0,0,1-.59-1.43H9.336a.32.32,0,0,1-.322-.322V9.971a.32.32,0,0,1,.322-.322h.733a4.04,4.04,0,0,1,.59-1.43L10.141,7.7a.335.335,0,0,1,0-.465l.626-.626a.335.335,0,0,1,.465,0l.518.518a4.04,4.04,0,0,1,1.43-.59V5.8a.32.32,0,0,1,.322-.322H14.4a.32.32,0,0,1,.322.322Zm-.769,1.269a2.816,2.816,0,0,0-1.982.923,2.328,2.328,0,0,0-.61,1.67,2.592,2.592,0,1,0,2.592-2.592ZM13.5,11.758Z"
        transform="translate(-6.1 -1.778)" fill="#fff" />
</svg>