<svg width="285" height="45" viewBox="0 0 285 45" fill="none" xmlns="http://www.w3.org/2000/svg">
    <path
        d="M51.2583 13.1079C54.3285 12.7211 57.5116 13.3829 60.1774 14.9487C63.5499 16.9035 66.0649 20.1989 67.221 23.899C68.5014 27.9517 68.1999 32.4895 66.3429 36.3185C64.7538 39.6332 61.9887 42.4029 58.5898 43.8519C55.5889 45.1491 52.1321 45.3571 48.9997 44.4246C45.7816 43.4864 42.9572 41.3742 41.0344 38.6501C38.7723 35.4786 37.7363 31.4929 38.0571 27.6226C38.3565 23.7066 40.0806 19.8962 42.9165 17.1564C45.165 14.963 48.1273 13.4848 51.2583 13.1079ZM51.4097 21.1635C49.7921 21.5311 48.3252 22.4671 47.2713 23.7387C45.9195 25.3494 45.2521 27.4929 45.39 29.5852C45.5208 31.9225 46.6869 34.1985 48.571 35.6111C50.1487 36.8243 52.2329 37.3614 54.2042 37.038C56.2619 36.7239 58.1296 35.4793 59.29 33.7647C60.5118 31.9937 60.9776 29.7419 60.614 27.6283C60.236 25.3295 58.8363 23.2002 56.8157 22.0133C55.2116 21.0516 53.2332 20.7439 51.4097 21.1635Z"
        fill="white" />
    <path
        d="M0 14.0039C1.14268 13.9995 2.28611 13.9974 3.42878 14.0054C8.13511 19.5443 12.8422 25.0833 17.5515 30.6207C22.2676 25.2252 26.9694 19.8196 31.6885 14.427C32.7922 14.4299 33.8952 14.427 34.9989 14.4299C35.0004 24.6194 35.0004 34.809 34.9989 44.9978C32.0182 45.0007 29.0382 45.0007 26.0598 44.9978C26.0583 41.4933 26.0598 37.988 26.0583 34.4842C23.2192 37.4478 20.3913 40.42 17.5538 43.3857C14.7919 40.3516 12.0382 37.3087 9.27629 34.2753C9.27479 37.8126 9.27779 41.3491 9.27479 44.8879C6.18395 44.8886 3.09234 44.8922 0.00149777 44.8857C-8.23273e-07 34.5913 0 24.2983 0 14.0039Z"
        fill="white" />
    <path
        d="M71.0008 14.0029C72.0658 13.9985 73.13 14.0029 74.195 14C79.3428 18.4945 84.4787 23.0029 89.625 27.4988C89.628 23.0337 89.6235 18.57 89.6265 14.1056C92.4177 14.11 95.2111 14.0858 98 14.118C97.9925 24.3732 97.9985 34.6299 97.997 44.8843C97.0786 44.8909 96.1616 44.8858 95.2425 44.8872C89.8785 40.2146 84.525 35.5295 79.1589 30.8561C79.1589 35.5691 79.1566 40.2835 79.1604 44.9965C76.4395 45.0024 73.7209 44.9994 71 44.9979C71.0007 34.6673 71.0008 24.3351 71.0008 14.0029Z"
        fill="white" />
    <path
        d="M101.002 15.0004C109 15.0004 117 14.9989 125 15.0018C124.999 17.3977 125.002 19.7921 124.997 22.188C122.427 22.1909 119.857 22.1866 117.288 22.1894C117.286 29.7922 117.288 37.3949 117.286 44.9976C114.465 45.0005 111.644 45.0005 108.823 44.9991C108.818 37.4293 108.824 29.8603 108.82 22.2905C106.213 22.2877 103.608 22.2905 101.002 22.2891C100.999 19.8595 100.999 17.4292 101.002 15.0004Z"
        fill="white" />
    <path
        d="M250.144 14.2058C253.609 13.8068 257.124 14.0321 260.567 14.5048C260.309 16.7337 260.051 18.9619 259.785 21.1894C258.131 20.8591 256.441 20.6798 254.749 20.6784C252.604 20.6642 250.51 21.3694 248.704 22.4204C246.846 23.5196 245.332 25.2247 244.841 27.2602C244.246 29.7307 244.774 32.4876 246.482 34.484C248.098 36.3579 250.483 37.5811 252.976 38.0822C255.6 38.467 258.276 38.265 260.903 37.9985C260.934 40.1672 261.088 42.3408 260.929 44.5059C257.679 44.9708 254.367 45.1565 251.09 44.8489C249.079 44.6186 247.03 44.2146 245.279 43.221C242.803 42.0523 240.597 40.3628 238.929 38.2863C237.159 36.0829 236.119 33.3735 236.015 30.6152C235.911 27.7237 236.326 24.7414 237.74 22.1362C238.663 20.4155 240.058 18.9442 241.683 17.7769C242.866 16.9194 244.171 16.2277 245.458 15.5211C246.886 14.7451 248.524 14.4077 250.144 14.2058Z"
        fill="white" />
    <path
        d="M155.053 14.004C157.819 13.9975 160.585 14.0004 163.35 14.0026C163.352 21.8685 163.349 29.7344 163.352 37.6018C165.568 37.6178 167.786 37.5757 170 37.6228C169.975 40.0816 169.999 42.5381 169.989 44.9983C164.992 45.002 159.996 44.9983 155 44.9998C155.006 34.6671 155.044 24.3359 155.053 14.004Z"
        fill="white" />
    <path
        d="M186.407 14.0024C187.817 13.998 189.226 14.001 190.636 14.001C195.096 24.325 199.545 34.6535 204 44.9783C200.751 44.9703 197.503 44.9617 194.253 44.9602C192.36 40.5337 190.482 36.1008 188.591 31.6743C186.495 36.1109 184.39 40.5417 182.292 44.9761C179.194 44.987 176.097 44.9928 173 45C177.467 34.6651 181.939 24.3344 186.407 14.0024Z"
        fill="white" />
    <path
        d="M128.001 14.0033C133.343 14.0018 138.687 13.9953 144.029 14.0062C146.395 14.1721 148.817 15.2741 150.089 17.288C151.296 19.2018 151.388 21.5826 150.995 23.7404C150.618 25.864 149.291 27.9722 147.142 28.7482C149.344 29.3957 151.09 31.2262 151.668 33.3841C152.175 35.2775 152.092 37.3199 151.482 39.1811C150.823 41.1855 149.266 42.8509 147.341 43.7826C145.919 44.4797 144.35 44.9145 142.757 44.9978C137.838 45.0007 132.92 45.0007 128.001 44.9978C128 34.6665 128 24.3346 128.001 14.0033ZM136.718 19.5131C136.723 21.6008 136.736 23.6893 136.737 25.777C138.22 25.7982 139.703 25.8253 141.187 25.8428C142.205 25.8552 143.266 25.3247 143.666 24.3784C144.078 23.397 144.068 22.2476 143.672 21.2632C143.257 20.2446 142.151 19.6359 141.057 19.6044C139.612 19.5657 138.165 19.5416 136.718 19.5131ZM136.495 31.767C136.493 33.881 136.493 35.9951 136.495 38.1091C137.959 38.1062 139.423 38.1091 140.886 38.082C142.121 37.9052 143.355 37.1262 143.738 35.9227C144.074 34.8485 143.905 33.5485 143.053 32.7396C142.27 32.0052 141.146 31.7195 140.084 31.7012C138.888 31.7195 137.692 31.7392 136.495 31.767Z"
        fill="white" />
    <path
        d="M207 14.0025C208.026 13.9988 209.053 14.0003 210.079 14.0003C215.033 18.4985 219.982 23.0026 224.936 27.5024C224.941 23.0371 224.935 18.5704 224.94 14.103C227.625 14.1015 230.312 14.1015 232.998 14.1044C233.001 24.3683 233 34.6322 233 44.8954C232.117 44.8991 231.235 44.8954 230.353 44.8969C225.184 40.2211 220.027 35.5337 214.858 30.8579C214.858 35.5703 214.858 40.2842 214.858 44.9966C212.239 45.0032 209.62 44.9981 207.001 44.9981C207 34.6667 207 24.3346 207 14.0025Z"
        fill="white" />
    <path
        d="M275.916 0.0674781C277.629 -0.147663 279.414 0.147595 280.918 1.01152C283.007 2.16958 284.522 4.30754 284.9 6.66849C285.096 7.99911 285.015 9.38633 284.557 10.6564C283.916 12.4891 282.58 14.064 280.88 14.9996C279.328 15.868 277.48 16.1829 275.726 15.8977C273.911 15.612 272.212 14.6707 271.001 13.2897C269.764 11.898 269.04 10.0598 269.003 8.19801C268.951 6.43991 269.505 4.67284 270.551 3.25929C271.812 1.53088 273.79 0.339206 275.916 0.0674781ZM276.613 1.0866C275.892 1.24627 275.378 1.86479 275.09 2.51246C274.876 3.00605 274.469 3.41504 273.967 3.60889C273.232 3.90751 272.423 3.60553 271.673 3.80442C271.015 3.99491 270.538 4.69189 270.644 5.37598C270.796 6.29761 271.537 7.02258 271.565 7.97839C271.622 8.51456 271.274 8.95549 271.054 9.41042C270.786 9.94267 270.576 10.5623 270.748 11.1584C271.007 11.8274 271.753 12.2313 272.456 12.1624C273.193 12.126 274.018 12.112 274.612 12.6252C275.15 13.1687 275.39 13.9407 275.951 14.4674C276.49 14.966 277.389 15.0142 277.973 14.5649C278.701 14.008 278.874 12.9709 279.661 12.4739C280.409 12.0554 281.296 12.3036 282.102 12.168C282.766 12.0812 283.326 11.4677 283.306 10.7898C283.303 10.0166 282.759 9.4121 282.505 8.71625C282.257 8.19409 282.315 7.56659 282.59 7.0674C282.89 6.46176 283.31 5.84604 283.244 5.13955C283.17 4.39552 282.477 3.80556 281.74 3.79155C280.98 3.71984 280.112 3.93497 279.463 3.42345C278.762 2.95675 278.585 2.05977 277.968 1.51856C277.613 1.17848 277.102 0.98687 276.613 1.0866Z"
        fill="white" />
</svg>